<svg xmlns="http://www.w3.org/2000/svg" viewBox="0 0 680 140" fill="currentColor" aria-hidden="true"><polygon points="12.4,33.4 161,32.8 158.1,50.9 12.4,50.3" opacity="0.72"/><polygon points="168,33.4 251.5,36.1 249,50.9 168,53.6" opacity="0.84"/><polygon points="266.9,33.4 353.9,34.6 347.4,50.9 266.9,52.1" opacity="0.96"/><polygon points="358.3,33.4 457.6,34.6 452.2,50.9 358.3,52.2" opacity="0.84"/><polygon points="463.4,33.4 503.5,30.5 497.7,50.9 463.4,48" opacity="0.99"/><polygon points="508.1,33.4 632,34.4 626.6,50.9 508.1,52" opacity="0.80"/><polygon points="636.8,33.4 676,31.2 671,50.9 636.8,48.8" opacity="0.91"/><polygon points="14.1,66 147.9,68 141.8,81.1 14.1,83" opacity="0.72"/><polygon points="152.8,66 199.2,66.5 196.6,81.1 152.8,81.6" opacity="0.87"/><polygon points="202.8,66 328.9,63.5 323.6,81.1 202.8,78.5" opacity="0.72"/><polygon points="366.3,66 480.3,64.7 477.5,81.1 366.3,79.8" opacity="1.00"/><polygon points="515,66 610.9,64.3 606.5,81.1 515,79.3" opacity="0.98"/><polygon points="614.2,66 657.8,67.1 654.4,81.1 614.2,82.1" opacity="0.97"/><polygon points="18.1,95.4 155.4,95.5 149.2,116.5 18.1,116.6" opacity="1.00"/><polygon points="190.9,95.4 316.7,97.5 314.4,116.5 190.9,118.6" opacity="0.90"/><polygon points="347.2,95.4 439.8,96.3 437.6,116.5 347.2,117.5" opacity="0.84"/><polygon points="474.7,95.4 602.8,94.6 597.8,116.5 474.7,115.7" opacity="0.84"/><polygon points="630.5,95.4 676,94 669.6,116.5 630.5,115.1" opacity="0.77"/></svg>
